<?xml version="1.0" encoding="UTF-8" standalone="no"?>
<!DOCTYPE svg PUBLIC "-//W3C//DTD SVG 1.1//EN" "http://www.w3.org/Graphics/SVG/1.1/DTD/svg11.dtd">
<!-- Generated by Microsoft Visio, SVG Export cloud1.svg Page-1 -->
<svg xmlns="http://www.w3.org/2000/svg" xmlns:xlink="http://www.w3.org/1999/xlink" xmlns:ev="http://www.w3.org/2001/xml-events"
		width="1.01089in" height="0.636351in" viewBox="0 0 72.784 45.8173" xml:space="preserve" color-interpolation-filters="sRGB"
		class="st2">
	<title>K5</title>
	<desc>K5 service and utility shapes</desc>

	<style type="text/css">
	<![CDATA[
		.st1 {stroke:#706f67;stroke-linecap:round;stroke-linejoin:round;stroke-width:2.31687}
		.st2 {fill:none;fill-rule:evenodd;font-size:12px;overflow:visible;stroke-linecap:square;stroke-miterlimit:3}
	]]>
	</style>

	<g>
		<title>Page-1</title>
		<g id="shape5-1" transform="translate(1.15843,-1.15843)">
			<title>Sheet.5</title>
			<path d="M59.63 22.81 C59.63 22.44 59.63 22.17 59.63 21.79 C59.63 11.04 51.02 2.32 40.28 2.32 C31.48 2.32 24.08 8.07
						 21.58 16.04 C19.72 15.3 17.69 14.75 15.46 14.75 C6.94 14.75 0 21.7 0 30.24 C0 38.86 6.94 45.82 15.46 45.82
						 C58.98 45.82 58.98 45.82 58.98 45.82 C65.47 45.82 70.47 40.62 70.47 34.32 C70.47 28.1 65.65 23.09 59.63
						 22.81" class="st1"/>
		</g>
	</g>
</svg>
