<?xml version="1.0" encoding="UTF-8" standalone="no"?>
<!DOCTYPE svg PUBLIC "-//W3C//DTD SVG 1.1//EN" "http://www.w3.org/Graphics/SVG/1.1/DTD/svg11.dtd">
<!-- Generated by Microsoft Visio, SVG Export router.svg Page-1 -->
<svg xmlns="http://www.w3.org/2000/svg" xmlns:xlink="http://www.w3.org/1999/xlink" xmlns:ev="http://www.w3.org/2001/xml-events"
		width="0.752149in" height="0.752449in" viewBox="0 0 54.1547 54.1764" xml:space="preserve"
		color-interpolation-filters="sRGB" class="st2">
	<title>K5</title>
	<desc>K5 service and utility shapes</desc>

	<style type="text/css">
	<![CDATA[
		.st1 {fill:none;stroke:none;stroke-linecap:round;stroke-linejoin:round;stroke-width:0.75}
		.st2 {fill:none;fill-rule:evenodd;font-size:12px;overflow:visible;stroke-linecap:square;stroke-miterlimit:3}
	]]>
	</style>

	<g>
		<title>Page-1</title>
		<g id="shape5-1" transform="translate(0.375,-0.375)">
			<title>Virtual router.20</title>
			<rect x="0" y="0.75" width="53.4047" height="53.4264" class="st1"/>
			<!-- Unsupported Record: EmfPlusRecordTypeSetPixelOffsetMode  -->
			<svg viewBox="0 0 69.994 69.987" height="53.4264" preserveAspectRatio="none" width="53.4047" x="0" y="0.75">
				<clipPath id="mfid1">
					<rect width="69.994" height="69.987" id="mfid2"/>
				</clipPath>
				<g clip-path="url(#mfid1)">
					<g>
						<g transform="matrix(0.00013123, 0, 0, 0.00013123, 0, 0)">
							<g fill="#57564f">
								<rect width="5.4102e+005" height="5.4102e+005" stroke="none"/>
								<defs>
									<!-- Unsupported Record: EmfPlusRecordTypeSetPixelOffsetMode  -->
									<!-- Unsupported Record: EmfPlusRecordTypeSetPixelOffsetMode  -->
									<svg viewBox="1916 3270 157 141.99" height="141" id="mfid3" width="157">
										<clipPath id="mfid4">
											<rect x="1916" y="3270" width="157" height="141.99" id="mfid5"/>
										</clipPath>
										<g clip-path="url(#mfid4)">
											<defs>
												<path id="mfid6"
														d="M6064,10023 C6064,10033 6067,10035 6078,10049 C6099,10074 6128,10109 6128,10109 C6136,10118 6150,10118 6158,10109 C6167,10100 6167,10085 6158,10076 C6133,10048 6133,10048 6133,10048 C6197,10048 6197,10048 6197,10048 C6209,10047 6219,10037 6219,10024 C6219,10011 6209,10000 6197,10000 C6133,10000 6133,10000 6133,10000 C6158,9973 6158,9973 6158,9973 C6167,9963 6167,9948 6158,9939 C6150,9930 6136,9930 6128,9939 C6078,10000 6078,10000 6078,10000 C6078,10000 6064,10013 6064,10023 Z"/>
											</defs>
											<g>
												<g transform="matrix(0.33333, 0, 0, 0.33333, 0, 0)">
													<g fill="#ffffff">
														<use xlink:href="#mfid6" fill-rule="nonzero" stroke="none"/>
														<defs>
															<path id="mfid7"
																	d="M5904,10025 C5904,10015 5901,10013 5890,9999 C5869,9974 5840,9939 5840,9939 C5832,9930 5818,9930 5810,9939 C5801,9948 5801,9963 5810,9972 C5835,10000 5835,10000 5835,10000 C5771,10001 5771,10001 5771,10001 C5759,10001 5749,10011 5749,10024 C5749,10037 5759,10048 5771,10048 C5835,10048 5835,10048 5835,10048 C5810,10076 5810,10076 5810,10076 C5801,10085 5801,10100 5810,10109 C5818,10118 5832,10118 5840,10109 C5890,10048 5890,10048 5890,10048 C5890,10048 5904,10035 5904,10025 Z"/>
														</defs>
														<use xlink:href="#mfid7" fill-rule="nonzero" stroke="none"/>
														<defs>
															<path id="mfid8"
																	d="M5983,10235 C5993,10235 5995,10232 6009,10220 C6034,10200 6069,10171 6069,10171 C6078,10163 6078,10149 6069,10140 C6060,10132 6045,10132 6036,10140 C6008,10166 6008,10166 6008,10166 C6007,10110 6007,10110 6007,10110 C6007,10098 5997,10088 5984,10088 C5971,10088 5960,10098 5960,10110 C5960,10166 5960,10166 5960,10166 C5932,10140 5932,10140 5932,10140 C5923,10132 5908,10132 5899,10140 C5890,10149 5890,10163 5899,10171 C5960,10221 5960,10221 5960,10221 C5960,10221 5973,10235 5983,10235 Z"/>
														</defs>
														<use xlink:href="#mfid8" fill-rule="nonzero" stroke="none"/>
														<defs>
															<path id="mfid9"
																	d="M5985,9810 C5975,9810 5973,9813 5959,9825 C5934,9845 5899,9874 5899,9874 C5890,9882 5890,9896 5899,9904 C5908,9913 5923,9913 5932,9904 C5960,9879 5960,9879 5960,9879 C5960,9935 5960,9935 5960,9935 C5961,9947 5971,9957 5984,9957 C5997,9957 6008,9947 6008,9935 C6008,9879 6008,9879 6008,9879 C6035,9905 6035,9905 6035,9905 C6045,9913 6060,9913 6069,9905 C6078,9896 6078,9882 6069,9874 C6008,9824 6008,9824 6008,9824 C6008,9824 5995,9810 5985,9810 Z"/>
														</defs>
														<use xlink:href="#mfid9" fill-rule="nonzero" stroke="none"/>
														<defs>
															<path id="mfid10"
																	d="M5984,9984 C5962,9984 5944,10002 5944,10024 C5944,10046 5962,10064 5984,10064 C6006,10064 6024,10046 6024,10024 C6024,10002 6006,9984 5984,9984 Z"/>
														</defs>
														<use xlink:href="#mfid10" fill-rule="nonzero" stroke="none"/>
													</g>
												</g>
											</g>
										</g>
									</svg>
								</defs>
								<!-- Unsupported Record: EmfPlusRecordTypeSetObject Obj_ImageAttributes -->
							</g>
						</g>
						<g transform="matrix(0.40506, 0, 0, 0.41262, -772.09, -1343.3)">
							<g fill="#57564f">
								<clipPath id="mfid11">
									<rect x="1916" y="3270" width="158" height="142.99"/>
								</clipPath>
								<use xlink:href="#mfid3" clip-path="url(#mfid11)" transform="matrix(1, 0, 0, 1, 0.0029605, 0)"/>
							</g>
						</g>
					</g>
				</g>
			</svg>
			<rect x="0" y="0.75" width="53.4047" height="53.4264" class="st1"/>
		</g>
	</g>
</svg>
